<?xml version="1.0" encoding="utf-8"?>
<!-- Generator: Adobe Illustrator 22.1.0, SVG Export Plug-In . SVG Version: 6.00 Build 0)  -->
<svg version="1.1" id="Layer_1" xmlns="http://www.w3.org/2000/svg" xmlns:xlink="http://www.w3.org/1999/xlink" x="0px" y="0px"
	 viewBox="0 0 500 500" style="enable-background:new 0 0 500 500;" xml:space="preserve">
<style type="text/css">
	.st0{fill:#231F20;}
</style>
<g>
	<g>
		<path class="st0" d="M182.5,292.8c1.8-8,3.8-16,5.5-24c0.4-2.1,1.4-2.7,3.4-2.6c10,0.4,7.8-2,10.3,8.3c1.3,5.4,2.5,10.8,3.7,16.2
			c0.1,0.5,0.3,1,0.7,2.1c1.4-8.6,2.9-16.7,4.1-24.8c0.3-2.2,1.2-2.8,3.3-2.6c1.4,0.1,2.9,0,4.4,0c6,0,5.4-0.6,4.5,5.2
			c-2.2,14.6-4.8,29.2-7.1,43.7c-0.3,2.1-1,2.8-3.1,2.8c-3.6-0.1-7.7,1.2-10.5-0.4c-1.2-0.7-5.9-22.7-7.6-30
			c-2.3,9.4-4.4,18-6.4,26.6c-0.5,2.3-1.4,3.7-4.1,3.3c-2.6-0.3-5.3-0.2-8-0.1c-1.7,0.1-2.3-0.7-2.6-2.3
			c-2.5-15.5-4.9-30.9-7.5-46.4c-0.4-2.6,0.3-3,2.7-3.1c9.7-0.1,9.6-0.1,10.9,9.4c0.8,6.2,2,12.4,3,18.6
			C182,292.8,182.3,292.8,182.5,292.8z"/>
		<path class="st0" d="M327.2,313.5c0.1,2.6-0.7,3.5-3.4,3.5c-9,0-9,0.1-9.1-9.1c0-5.1-0.1-10.3,0-15.4c0-2.1-0.4-3-2.7-2.8
			c-2.5,0.2-5.1,0.2-7.7,0.1c-1.8-0.1-2.2,0.6-2.2,2.3c0.1,7.1,0.1,14.3,0.3,21.4c0.1,2.5-0.5,3.6-3.3,3.6c-9.1,0-9.1,0.1-9.2-9
			c-0.1-12.7-0.2-25.4-0.5-38.2c-0.1-3.2,1-4,4-4c8.6,0.1,8.6,0,8.7,8.5c0,3.2,0.1,6.5,0,9.7c-0.1,1.6,0.2,2.5,2.1,2.3
			c2.2-0.2,4.8,0.1,6.9,0c1.1-0.1,2.1,0,2.8-0.6c1-0.8,0.4-6.7,0.4-9.3c0.1-2.7,0-5.4-0.1-8c-0.1-1.8,0.7-2.7,2.6-2.6
			c0.2,0,0.4,0,0.7,0c9.4-0.2,9.4-0.2,9.4,9.1C326.9,280.4,327,306.1,327.2,313.5z"/>
		<path class="st0" d="M271.6,313.5c0.1,2.7-0.8,3.4-3.4,3.4c-9,0-8.9,0.1-9-8.8c-0.1-12.2-0.3-24.3-0.4-36.5c0-2.1-0.5-2.9-2.7-2.8
			c-2.7,0.2-5.4,0-8,0c-1.1,0-2.6-0.1-2.6-1.4c-0.1-1.7,1.5-1.7,2.7-1.7c7.9,0,15.8,0,23.8,0.1c4,0,8,0.2,12,0.4
			c0.9,0,2.2-0.1,2.1,1.4c-0.1,1.4-1.3,1.4-2.3,1.4c-3.3,0-6.7,0.2-10,0c-1.9-0.1-2.5,0.5-2.4,2.4
			C271.4,278.5,271.4,306.6,271.6,313.5z"/>
		<path class="st0" d="M242.1,313.4c0.1,2.6-0.7,3.5-3.4,3.5c-9.1,0-9,0.1-9.1-9c-0.1-12.7-0.2-25.4-0.5-38.1c-0.1-3.2,1-4,4-4
			c8.6,0.1,8.6,0,8.7,8.5C241.8,280.1,242,306.2,242.1,313.4z"/>
	</g>
	<g>
		<path class="st0" d="M119.3,290.7c-8.7-2.7-15.9-7.6-22.1-14c-1.2-1.2-2.2-2.5-2.8-4.1c-0.6-1.6-1-3.4,0.6-4.6
			c1.4-1,3-0.3,4.3,0.7c4.1,3.1,8.6,5.5,13.1,7.9c12.9,6.7,26.3,11.8,41,12.5c0.8,0,1.8,0,1.9,1c0,1.5-1.3,1.2-2.3,1.3
			c-13.5,0.9-26.1,4.9-37.9,11.3c-4.6,2.5-9,5.3-13.3,8.3c-0.9,0.6-1.9,1.2-2.8,1.8c-1.3,0.7-2.7,1.5-4,0.4
			c-1.5-1.2-0.8-2.9-0.2-4.3c3.4-7.6,9.6-12.3,16.9-15.8C114.1,291.9,116.7,291.2,119.3,290.7z"/>
		<path class="st0" d="M86.7,290.2c-4.4-1.8-7.6-4.2-10-7.7c-0.9-1.3-1.6-2.7-1.6-4.3c0.1-1.7,0.4-3.4,2.1-4.2
			c1.7-0.9,3.1,0.2,4.2,1.2c3.5,3.3,6.8,6.8,10.9,9.4c2.6,1.7,5.2,3.3,8.2,4.4c0.6,0.2,1.3,0.4,1.3,1.3c0,0.9-0.7,1.1-1.3,1.3
			c-6.5,1.8-11.1,6.3-15.8,10.8c-1.4,1.3-2.7,2.6-4.2,3.8c-1.4,1.1-3,1.7-4.6,0.6c-1.5-1.1-1.3-2.9-0.8-4.3
			c1.6-5.1,4.6-9.1,9.6-11.3C85.2,290.8,85.7,290.6,86.7,290.2z"/>
		<path class="st0" d="M53.6,300.4c-2.5-0.1-4.3-0.5-5.4-2.3c-1.2-1.9-0.8-3.9,0.6-5.6c0.9-1.1,1.2-1.7,0-3.1
			c-2.7-3.2-0.5-7.8,3.7-8.3c3-0.3,5.7,0.5,8.2,2c3.1,1.9,6.3,3.8,9.4,5.6c1.2,0.7,1.7,1.6,0.6,2.6
			C65.6,295.4,60.1,299.3,53.6,300.4z"/>
	</g>
	<g>
		<path class="st0" d="M373.7,290.7c10.7,2.2,18.9,7.3,24.2,16.3c1.1,1.8,2.8,4.2,0.7,6c-1.9,1.8-4-0.2-5.7-1.3
			c-10.9-7.5-22.3-14-35.2-17.5c-5.7-1.6-11.5-2.4-17.4-2.9c-0.8-0.1-2.1,0-2-1.2c0.1-1.2,1.2-1,2.1-1c14.1-0.7,27-5.5,39.5-11.8
			c4.9-2.5,9.9-5.1,14.3-8.5c1.4-1.1,3-1.9,4.5-0.6c1.5,1.3,1,3.1,0.4,4.7c-0.6,1.6-1.7,2.9-2.9,4.1
			C390,283.2,382.8,288,373.7,290.7z"/>
		<path class="st0" d="M407,290.2c4.8,1.7,8.2,4.7,10.3,9.2c0.4,0.8,0.8,1.6,1,2.4c0.4,1.7,1,3.7-0.8,4.9c-1.7,1.2-3.4,0.2-4.8-0.9
			c-3.5-2.8-6.3-6.4-9.9-9c-3-2.2-5.9-4.4-9.5-5.3c-0.6-0.1-1.4-0.3-1.5-1.1c-0.1-1.1,0.6-1.2,1.4-1.5c6.9-2.8,12.6-7.4,17.8-12.7
			c1.5-1.5,3-3.6,5.7-2c2,1.3,2.3,4.4,0.8,7.2C415.3,285.6,411.6,288.2,407,290.2z"/>
		<path class="st0" d="M439.6,281c2.3-0.2,4.4,0.6,5.6,2.7c1.2,2.2,1.2,4.5-1,6.3c-1.2,1-0.1,1.4,0.3,2.1c1.4,1.9,2.2,4,0.7,6.1
			c-1.5,2.2-3.9,2.5-6.3,2c-6.1-1.3-11-5-15.9-8.7c-0.7-0.5-1.8-1.6-0.1-2.6c4.4-2.5,8.4-5.7,13.3-7.4
			C437.4,281.1,438.4,281,439.6,281z"/>
	</g>
	<g>
		<path class="st0" d="M269.2,103c0.1-1.4-0.4-2.7,0.8-3.1c1.5-0.5,1.7,1,2.2,1.9c3.2,6.1,9,9.7,13.9,14.1c1.2,1.1,2.6,2.1,3.7,3.3
			c2,2.1,3.1,4.5,1.3,7.2c-1.8,2.7-4.6,2.6-7.2,1.7c-5.5-2-9-6.3-11.4-11.5C270.5,112.3,269.7,107.5,269.2,103z"/>
		<path class="st0" d="M257.9,104.9c-0.7,6.2-1.9,13-6.1,19c-1.5,2.1-3.2,4-5.6,5.2c-2.2,1.1-4.6,1.6-6.5-0.4c-2-2-1.8-4.4-0.7-6.8
			c1.1-2.5,3.2-4.2,5.3-5.8c5-3.7,9.3-8,10.9-14.2c0.2-0.8,0.5-1.5,1.5-1.4c1.1,0.1,1.1,1,1.1,1.7
			C257.9,102.8,257.9,103.4,257.9,104.9z"/>
		<path class="st0" d="M268,128.4c-0.1,1.3,0.2,2.9-0.6,4.4c-0.9,1.7-2,3.1-4,3c-1.9-0.1-2.9-1.4-3.6-3c-1.2-3.1-0.7-6.1,0.3-9.1
			c0.7-2.2,1.6-4.3,2.4-6.5c0.3-0.8,0.2-2,1.3-2c1.2,0,2,0.9,2.2,2.1C266.7,120.8,268.1,124.4,268,128.4z"/>
	</g>
	<path class="st0" d="M335.1,415c-0.5-0.7-1.4-0.5-2.2-0.2c-1.8,0.7-3.6,1.1-5.5,1.3c-4.5,0.5-8.9-0.4-13.4-0.2
		c-2.3,0.1-4.4,0.7-6.3,1.8c-2.2,1.3-2.9,2.8-0.6,4.9c3.6,3.2,6.2,7.3,8.2,11.7c1.8,3.8,2.1,7.7,0.3,11.6c-0.9,1.8-2.1,3.6-4.3,3.8
		c-2.2,0.2-3.3-1.5-4.3-3.2c-7.3-12.4-9.1-25.6-6.1-39.5c0.4-1.7,1-1.7,2.5-1.1c6.7,2.9,13,1.6,17.9-3.7c5.5-6.1,7.6-13.3,6.3-21.3
		c-1.3-8.5-8.7-11.9-16.2-7.8c-6.8,3.7-11.6,9.3-15.3,15.9c-0.6,1-0.8,2.2-2.1,2.8c-1.5-2.2-2.9-4.4-4.3-6.5
		c-2.3-3.5-4.9-6.7-8.2-9.2c-7.6-5.7-17.7-3-19.9,5.3c-0.2,0.9-0.7,2.1,0.3,2.8c0.9,0.7,1.6-0.3,2.4-0.7c2.5-1.6,5.1-2.5,8.2-1.9
		c9,1.7,14.1,8.4,19.4,14.9c0.8,1-0.9,5.8-2.1,6c-10.4,1.9-15.6,9.4-19.4,18.3c-3.9,9-4.5,18.7-6.1,28.3c-0.7,4.1-0.4,8.4-2.2,12.7
		c-1.3-2.4-1.7-4.6-1.8-6.9c-0.5-7.7,0.1-15.4,0.3-23.1c0.3-10.1-2.8-18.8-10.4-25.7c-6.1-5.5-16.4-5.7-22.7-0.5
		c-1,0.9-1.7,2-2.1,3.3c-1.4,4.5,1.5,7.6,3.5,11c5.2,9.2,4.1,18.6,0.3,27.9c-0.8,1.9-2.5,3.5-4.9,3.3c-2.5-0.2-2.6-2.4-3.3-4.1
		c-0.4-0.8-0.6-1.7-0.8-2.6c-3.3-18.8-0.6-36.7,8.6-53.5c1.5-2.6,3.3-5,5.7-6.9c1.2-0.9,2.6-1.4,4-0.3c1.3,1.1,1.3,2.4,0.6,3.9
		c-0.6,1.2-1.4,2.3-2.2,3.3c-1.5,1.8-3.6,2.6-5.5,3.6c-2,1.1-2.6,2.7-1.8,4.8c0.8,2,2.6,2.3,4.5,1.9c1.7-0.3,3-1.5,4.3-2.5
		c4.5-3.6,9.8-4.9,15.4-4.1c3.6,0.5,6.8,1.9,8.1,5.9c1.1,3.5-0.1,6-3,8c-1.5,1-0.3,1.8,0.6,2.4c2.6,1.9,5.3,1.3,7.9,0.2
		c2.8-1.2,4.8-3.2,5.2-6.4c0.6-5.2-2.6-9.9-8.4-12.2c-6.3-2.6-12.8-2.4-19.7-0.5c0.8-2.1,1.8-3.9,2.2-5.8c0.8-3.8,1.1-7.6-2.6-10.3
		c-2.7-2-5.7-1.7-8.6-1c-8.6,2.3-14.8,8-19.8,15c-9.3,13-12.4,28.1-13.5,43.6c-0.4,5-0.8,10-2.1,14.8c-0.4,1.6-0.9,3.5-2.9,3.7
		c-2.1,0.2-2.9-1.7-3.7-3.3c-0.2-0.5-0.4-1-0.6-1.5c-2.7-8.1-3.4-16.4-2.5-24.8c1.6-16.3,7.2-31.3,15.1-45.5
		c3-5.3,6.4-10.4,9.9-15.5c1.9-2.8,3.2-5.8,0.7-8.9c-3.2-3.9-7.2-6.7-12.4-5.5c-7.5,1.7-14.2-0.1-20.9-3.2c-8.4-3.8-17-6.5-26.4-4.9
		c-8.1,1.4-14.9,5.2-19.6,12c-0.9,1.2-2.3,3.1-0.5,4.4c1.7,1.2,3.1-0.2,4.2-1.5c4.5-5.4,10.4-7.3,17.2-7c4.3,0.2,8.3,1.2,12.3,2.5
		c6.4,2.1,12.8,4.4,19.8,3.9c3.3-0.2,6.5-1.2,10.2-1.8c-4,6.8-7.4,13.4-10.3,20.2c-8.5,20.2-13.8,41.1-12.9,63.2
		c0.3,8.1,2.2,15.8,7.3,22.5c3,4,7.1,5.4,11.8,4.7c4.4-0.6,6.4-4.1,7.7-7.9c1.1-3.1,2-6.3,3.1-9.9c1.3,4.3,2.8,8.1,5.8,10.8
		c7.3,6.7,18.9,3.7,23.4-6.3c2.8-6.2,4.4-12.8,4.7-19.6c0.2-6.7-0.6-13.3-2.4-20.1c3.7,2.3,5.9,5.3,7.1,9c2,6.2,2.9,12.6,2.5,19.1
		c-0.3,4.8-0.4,9.6,0.2,14.3c0.7,5.5,1.4,11.1,5.2,15.6c5,5.9,13.4,5.1,17.1-1.7c2.1-3.8,3.3-7.9,4.5-12.1
		c3.1-10.9,4.7-22.1,8.1-32.9c1.2-3.9,3.2-7.4,6.8-10.5c-1.3,7.9-1.2,15.2,0.6,22.5c2,8.4,5.3,16.1,12.5,21.4c2.9,2.2,6,3.1,9.7,2
		c8.3-2.4,13.3-11.4,11.7-21.3c-0.7-4.4-1.7-8.7-3.6-13c1.9,0,3.5,0.1,5,0c3.5-0.3,6.6-1.7,9.3-4C335.1,416.7,335.7,415.8,335.1,415
		z M303.3,399.8c2.6-6.6,5.8-13,11-18c0.2-0.2,0.3-0.3,0.5-0.5c1-0.8,2.1-1.9,3.5-1.3c1.5,0.6,0.6,2.2,1,3.3
		c-1.1,5.8-2.3,11.5-5.8,16.4c-2.5,3.6-5.7,4.5-8.9,2.9C303.3,402,302.7,401.2,303.3,399.8z"/>
	<g>
		<path class="st0" d="M474.8,189.6c-0.5-1.2-1.5-0.6-2.3-0.3c-3.8,1.8-7.8,1.4-11.8,0.7c-4.9-0.9-9.9-1.8-14.7,0.7
			c-3.4,1.8-3.6,3.2-0.9,6c3.8,4,6.9,8.4,8.5,13.7c1.2,3.8,0.7,7.3-1.6,10.5c-2.3,3.3-5,3.3-7.1-0.1c-8.1-13.1-9.9-27.2-6-42.2
			c3.8,1.9,7.5,3,11.5,2c11.9-2.9,19.2-20.8,12.7-31.2c-2.6-4.1-7.7-5.7-12.2-3.7c-5.9,2.6-10.4,6.8-14.2,11.9
			c-7.6,10.5-10.5,22.4-11.2,35.1c-0.1,1.4,0.1,2.8-1.7,3.1c-1.8,0.3-3.6,0.6-4.7-1.4c-0.6-1.2-1.3-2.3-1.7-3.6
			c-1.9-5.4-2.7-11-2.8-16.7c-0.3-14.7,3.7-28.5,9.5-41.9c4.1-9.4,9.4-18.1,15.3-26.5c1.8-2.5,3.6-5.1,1.7-8.5
			c-2.9-5.2-9.9-8.1-15.4-6c-7.5,2.9-15.1,3.2-23,1.6c-7.1-1.4-13.9-3.8-20.8-5.8c-14.2-4.3-28.4-7.4-43.3-4.4
			c-8.8,1.8-17,4.9-21.7,12.9c-2.5,4.2-4.9,4.8-8.9,3.9c-0.5-0.1-1.1-0.2-1.6-0.3c-15.5-3-23.5-13.5-27.8-27.8c-1-3.1-0.4-4.3,3-4.8
			c7.3-1.2,13-5.1,16.8-11.4c3.5-5.7,1.3-12.5-4.4-14.4c-2.9-0.9-6-0.9-8.8,0.5c-6.4,3.2-10.6,8.3-12.9,15.1c-1.4,4-1.4,4-5.3,2
			c5.2-7.8,6.4-11.1,6.2-16.8c-0.2-6.5-4.4-11.7-10-12.4c-6.7-0.9-12.3,2.8-14.2,9.5c-2.1,7.5,0.1,13.8,5.4,19.2
			c0.7,0.7,2.2,1.5,1.7,2.2c-1.2,1.7-3.4,2.3-5.4,2.8c-1.5,0.4-1.4-0.9-1.8-1.7c-4.3-8.1-10.1-14.5-19.5-16.3
			c-4.3-0.8-8.3,0.6-11,4.1c-2.8,3.5-2.5,7.4-0.4,11.2c1.8,3.3,4.3,5.6,7.6,7.2c5.1,2.4,10.5,3.5,16.2,3.3c2-0.1,2.7,0.3,2.6,2.5
			c-0.5,14-9.6,28.6-28.3,28.9c-10.3,0.1-20.4-1.6-30.3-4.2C167.3,92.8,149,86.8,130.2,83c-14.3-2.9-28.7-4.9-43-0.9
			c-10,2.8-18.3,8.1-22.5,18.2c-1.9,4.6-0.4,10.5,2.8,12.8c0.7,0.5,1.5,1.2,2.4,0.8c0.9-0.4,1-1.4,0.9-2.3c-0.1-1.9,0.3-3.8,1-5.5
			c4.7-12.3,16.9-20.7,30-20.6c12.1,0,23.8,2.5,35.3,6.3c22.3,7.4,44.7,14.7,67.9,18.7c8.4,1.4,16.8,1.2,25-2
			c14.1-5.6,20.2-17.3,20.6-31.1c0.2-8,3.8-10.7,9.6-13.3c0.9-0.4,1.5-0.6,2.4,0c2,1.3,4.3,1.9,6.5,2.4c1.6,0.4,1.9,1.1,1.9,2.5
			c0.1,17.2,15.1,38,39,35.9c2.1-0.2,3.4,0,2.8,2.7c-0.4,1.9,0.1,3.8,0.6,5.6c1.2,4.5,4.8,7.3,9.5,7.3c4.8,0,8.3-2.6,9.6-7.2
			c1-3.6-1-8.2-4.9-10.4c-1.7-1-3.7-1.7-5.7-2.6c6.3-7.2,14.1-10.5,23.3-10.8c9.2-0.2,17.7,3,26,6.3c11.1,4.4,22.4,6.4,34.3,4.4
			c6.2-1,12.2-2.8,18.9-4.8c-12.8,20.6-18.3,42.9-21.1,66.6c-1-1.1-1.8-2-2.6-2.8c-3.7-3.7-7.8-4.3-12.5-2.2c-2.1,1-4.2,2.1-5.7,3.9
			c-10.3,12.2-15.1,25.8-10.1,41.7c1.1,3.5,0.5,6-2.3,8.1c-2.6,2-4.8,1.4-5.7-1.9c-0.5-1.7-0.7-3.5-0.8-5.3
			c-0.3-7.8,1-15.6,0.9-23.4c-0.1-4.6-1.9-5.6-6.1-3.8c-3.3,1.4-5.6,3.9-7.4,7c-1.6,2.8-3.2,5.6-4.8,8.4c-1.1,1.7-2.3,3.6-4.6,3.2
			c-2.4-0.5-3.2-2.6-3.5-4.8c-1.2-6.8-0.3-13.5,2-20c2.4-6.6,6.5-11.9,12.7-15.3c3.7-2,6.4-0.1,6.3,4.1c-0.1,3.7-2.7,6.6-6.7,7.7
			c-2.2,0.6-4.6,0.6-6.7,1.9c-1.7,1-2.5,2.6-2.4,4.4c0.1,1.8,1.4,2.6,3,3.2c2.8,1.1,5.5,0.8,8-0.7c6.3-3.8,11-9,12.8-16.4
			c1.7-7.2-2.2-12.8-9.5-14c-5-0.8-9.4,0.6-13.7,3c-8.4,4.7-13.2,12.2-16.6,21c-4.6,11.9-5.2,23.8-1.5,35.9c1.5,4.9-1,10.2-5.9,11.9
			c-2.1,0.7-3.1,0.1-3.6-2c-0.3-1.6-0.4-3.1-0.3-4.7c0.4-5.6,1.3-11,2.1-16.5c0.8-5.2,2-10.3,1-15.6c-0.6-3.5-2.5-4.3-5.8-3
			c-2.5,1-4.5,2.9-6.4,4.7c-4.3,4-7.7,8.8-11.1,13.8c-0.6-1.7,0.1-3,0.6-4.1c1.9-4.4,3.9-8.7,6.3-12.9c2.6-4.6,5.2-9.3,6.7-14.5
			c0.7-2.4,0.5-4.7-1.6-6.4c-2-1.5-4-0.7-5.9,0.4c-3.1,1.7-5.3,4.4-7.6,7c-5.4,6.2-10.1,12.9-14.7,20.7c-0.9-6.2-1.8-11.7-4.1-16.8
			c-0.9-1.9-1.8-3.9-3.6-5.1c-1.8-1.2-3.9-1.5-5.6-0.3c-1.7,1.2-0.4,2.9,0,4.3c2.8,8.2,3.4,16.4,1.4,24.9
			c-1.6,6.7-4.7,12.6-7.4,18.8c-1.5,3.4,0.3,7,4.4,8.7c3.8,1.5,3.4-2.5,4.7-4.1c0.8-0.9,1-2.2,1.5-3.3c4.5-10.1,9.5-20,15.4-29.5
			c1-1.6,1.8-3.4,4.2-4.3c-0.6,3.2-1.6,5.9-2.6,8.6c-4.1,10.6-6,21.6-5.4,33c0.1,1.7,0.3,3.6,2.4,3.9c2.1,0.3,2.9-1.3,3.5-3
			c0.2-0.5,0.4-1,0.6-1.6c3-8.9,7.2-17.2,12.5-24.9c0.9-1.3,1.5-3.7,3.3-3c1.5,0.5,0.5,2.8,0.4,4.3c-0.4,6.3-1.4,12.6-0.1,19
			c0.9,4.5,2.4,8.7,7.3,10.2c4.9,1.5,8.9-0.4,12.3-4c2.1-2.3,3.5-5,4.4-8.1c6.4,4.8,8.6,4.5,13.5-1.8c3.1-4.1,5.1-8.7,7.1-13.8
			c0.9,5.4,1.5,10.4,3.6,15c2.3,5.2,7,8.2,12,7.8c4.2-0.4,6.2-3.7,8.5-6.5c1.4-1.6,1.7-2.1,3.1-0.1c4.2,5.9,10.7,6.4,16,1.4
			c4-3.8,6.5-8.4,7.9-13.6c0.9-3.4,1.9-6.7,2.9-10.2c1.7,0.6,1.8,1.9,2.1,3c0.9,3.1,2.3,6,4.3,8.6c3.6,4.6,9.3,5.2,13.8,1.6
			c0.7-0.6,1.5-1.2,2.4-2.1c0.3,1.3,0.5,2.2,0.7,3.2c1.4,8.1,4.6,15.3,10.4,21.2c5,5.1,11,5.9,16.3,2.3c4.4-3,7.1-7.3,7.6-12.7
			c0.6-6.7-0.7-13-3.3-19.4c0.6,0.1,1,0.2,1.4,0.3c5.5,1.1,10.6,0.4,14.9-3.8C474.5,191.3,475.3,190.6,474.8,189.6z M441.3,171.7
			c2.4-6.2,5.6-11.8,10.3-16.4c1.1-1.1,2.4-2.5,3.9-1.8c1.6,0.8,1.1,2.7,0.8,4.2c-0.9,5.3-2.2,10.4-5.1,14.9
			c-1.5,2.3-3.3,4.2-5.5,4.3C441.1,176.9,440,175.3,441.3,171.7z M278.7,59.3c1.3-5.2,2.8-10.4,7.7-13.4c1.9-1.2,4-2,6.3-0.6
			c1.6,1,2.3,2.3,2.1,4.2c-0.2,3-2.1,5.1-4.2,6.8c-3,2.4-6.4,4-10.3,4.3C279.3,60.7,278.3,60.7,278.7,59.3z M241.6,64.1
			c-7-0.8-12.4-2.3-16.5-6.6c-1.9-1.9-3.4-4.2-1.6-6.8c1.6-2.4,4.4-2.5,6.9-1.5c5.5,2.3,9.6,6.3,12.1,11.7
			C243.6,63.4,243.3,64.5,241.6,64.1z M260.2,54.4c-3.7-4-6-8.6-5.9-14.1c0-3.1,1.5-5.6,4.4-7c4.9-2.4,10.1,0.3,9.5,5.7
			c-0.3,6.3-2.4,10.9-5.3,15.2C261.9,55.6,261.2,55.4,260.2,54.4z M327.5,110c0.1,3.9-1.7,5-3.9,5.3c-2.6,0.3-4.4-2.2-4.2-5.9
			c0.1-1.4-1-3.9,1.7-4.1C324.5,105.1,327.5,108.2,327.5,110z M399.3,182.4c-1.2,6.7-2.8,13.2-6.2,19.2c-0.9,1.5-1.7,3.5-3.8,3.4
			c-2.3-0.1-3.3-2.1-4.1-4c-1.8-4.6-2.8-9.4-2.3-14.3c0-8.2,2.6-15.5,7.4-22c1.1-1.5,2.4-3.2,4.6-2.9c2.4,0.3,3.5,2.1,4.3,4.2
			C401.4,171.5,400.3,176.9,399.3,182.4z"/>
		<path class="st0" d="M149.4,224.7c-0.1-1.2,0.2-2.7-1.4-3c-1.4-0.2-1.7,1.2-2.1,2.2c-2.6,6.7-7.7,10.3-14.6,11.9
			c-3.8,0.9-7.7,1.4-11.6,1.5c-19.3,0.4-37.7-3.8-55.4-11.4c-1.4-0.6-1.6-1.2-1.2-2.8c5.5-18.2,7.2-36.9,5.8-55.8
			c-0.1-1.6,0.2-2.4,1.7-3c4.2-1.5,8.4-2.8,12.4-4.6c2.7-1.2,3-0.4,3,2.2c0.1,14.2,2.6,28.1,5.5,42c1.7,8.2,6.2,13.6,14.4,15.8
			c1.4,0.4,2.9,1.4,4,0.1c1-1.2,0-2.6-0.5-3.8c-2.2-4.6-4.4-9.2-5.9-14.1c-4.3-14.8-4.2-29.9-4-45.1c0-1.9,1.2-2,2.5-2.5
			c7.3-2.4,14.4-5.3,19.9-11.1c2.8-2.9,4.4-6.4,4.9-10.4c0.1-1.2,0-2.5-1.2-2.8c-1.5-0.4-1.6,0.9-2,2c-0.7,2.2-2.3,3.8-4.1,5.2
			c-4.9,3.8-10.7,5.3-16.6,6.4c-1.4,0.2-1.9,0-1.6-1.8c1.5-10.5,4-20.7,6.6-30.9c2-8.1-0.8-13-8.6-15.2c-3.6-1-5.5-0.2-7,3.2
			c-2.1,4.9-3.5,10.1-4.2,15.4c-1.1,9.6-2.1,19.3-2.1,29c0,1.9-0.5,2.9-2.7,3.2c-4.2,0.7-8.4,1.8-12.6,3c-4,1.1-3.9,1.2-4.7-2.8
			c-2.5-12.6-6.3-24.8-13.7-35.5c-6.1-8.8-14.7-13.8-25.1-15.5c-6.9-1.2-13.6,3.1-15,9.3c-0.6,2.7,0.3,3.9,3.2,4
			c2.6,0.1,5.1-0.8,7.5-1.6c3.2-1.2,6-0.7,8.8,1.2c5.7,3.8,9.2,9.3,11.7,15.4c4,9.7,5.7,19.8,7.3,30.1c0.3,2-0.4,3.2-2.2,4.2
			c-8.2,4.6-15.9,9.8-22.5,16.6c-3.6,3.7-7,7.6-8,12.8c-0.4,1.9-1.3,4.4,1,5.4c2,0.9,3-1.3,4.2-2.6c8.2-8.9,18.5-14.8,29.3-20.1
			c1.2,5.1,0.8,10,1.2,14.9c0.9,11.5-0.1,22.9-2.3,34.2c-0.5,2.3-1.4,3.1-3.9,3.2c-8.4,0.4-15.6,3.8-20.3,11.1
			c-4.3,6.7-1.2,14.7,6.5,16.6c4.9,1.2,9.8,0.6,13.9-2.7c4.6-3.7,8-8.4,10.7-13.5c1.1-2.1,2-2.2,3.9-1.1c4.5,2.8,9.2,5.4,13.9,7.9
			c12.8,6.7,25.9,12.3,40.9,11.1c10.6-0.8,19.9-4.6,27.1-12.5C148.1,235.4,150.1,230.6,149.4,224.7z M39.7,239.3
			c-1.5,0.7-3.1,1.4-4.4-0.4c-1.1-1.6-0.7-3.3,0.4-4.6c3.2-3.7,7.5-5.6,13.1-6.6C46.4,232.6,44.4,237,39.7,239.3z"/>
		<path class="st0" d="M265.1,190.4c-0.5-0.8-1.3-0.6-2.1-0.3c-2.8,1.1-5.7,0.7-8.5,0.5c-4.3-0.3-8.7-0.9-12.8,1.2
			c-3.4,1.8-3.7,3.2-0.9,6c3.5,3.4,6.1,7.4,7.9,11.8c1.6,3.7,1.6,7.3-0.1,11c-0.9,1.9-2.1,3.5-4.4,3.7c-2.1,0.1-3.2-1.5-4.1-3
			c-7.6-13-9.4-26.8-5.6-41.5c6.1,3.1,11.9,3.3,17.4-0.7c7-5,10.9-17,8.4-25.2c-2.2-7.1-8.6-9.8-15.3-6.4c-2.9,1.5-5.6,3.3-7.8,5.7
			c-14.3,15.1-18,33.2-14.7,53.2c0.8,4.9-0.2,7.5-4.8,10c-3.6,2-5.3,1-5.5-3.1c-0.3-5.8,0.8-11.5,1.7-17.3
			c0.8-5.3,1.8-10.5,1.7-15.9c-0.1-5.4-2.9-6.9-7.6-4.2c-1.9,1.1-3.4,2.5-4.9,4c-4.4,4.1-8,8.9-11.4,14c-0.1-0.8-0.1-1.4,0.2-2.1
			c1.8-5,4.1-9.8,6.7-14.5c2.8-5.1,5.9-10.2,7.2-16c0.5-2.1,0-4-1.7-5.4c-1.7-1.4-3.6-0.8-5.3,0c-1.6,0.7-3,1.9-4.2,3.2
			c-6.3,6.2-11.5,13.3-16.2,20.8c-0.7,1.2-1.2,2.5-2.6,3.5c-0.8-6.2-1.7-12.1-4.2-17.6c-2.1-4.7-5.3-8.5-10.4-10.2
			c-2.4-0.8-4.1-0.3-5.1,2.2c-2.5,6-7.4,8.6-13.5,9.5c-7.2,1.1-10.1,7.1-5.7,12.9c4.7,6.3,5.8,13.1,5.2,20.5
			c-0.4,4.1-1,8.2-3.5,11.7c-1,1.5-2.5,2.7-4.5,2.4c-1.9-0.3-2.3-1.9-2.9-3.3c-1.4-3.4-1.9-7.1-2.2-10.7
			c-1.1-16.6,1.6-32.4,10.1-46.8c1.5-2.5,3.3-4.8,5.6-6.5c1.2-0.9,2.5-1,3.7,0c1,0.9,1.3,2.1,0.7,3.4c-0.5,1-1.1,1.9-1.7,2.9
			c-1.5,2.4-4,3.4-6.4,4.6c-1.9,0.9-2.5,2.6-1.7,4.5c0.7,1.9,2.4,2.2,4.2,1.8c1-0.2,1.9-0.6,2.7-1.1c5.3-3.4,8.9-8.1,10.4-14.2
			c1.8-7.9-3.1-12.5-11-10.8c-5,1.1-9.3,3.7-13,7.1c-14.1,12.9-18.9,29.4-18.2,47.9c0.2,6.5,0.8,12.9,3.4,18.9
			c2.6,6,6.5,10,13.5,9.9c7.2-0.1,11.7-4.3,14.3-10.3c5.4-12.5,6-25.4,2-38.5c-0.5-1.7-0.1-2.1,1.4-2.4c3.6-0.8,6.5-2.8,8.5-6
			c1.1-1.8,2.2-1.5,3.3-0.1c0.7,0.9,1.1,1.9,1.4,3c3.3,12.3,2.3,24.2-3.1,35.8c-1.1,2.4-2.2,4.8-3,7.4c-0.8,2.6,2.2,6.8,5.3,7.5
			c2.9,0.7,2.9-2.2,3.9-3.6c0.7-1,1-2.2,1.5-3.3c4.6-10.4,9.8-20.4,15.6-30.1c1-1.6,2-3.4,4.4-4.7c-0.8,3.7-1.8,6.6-3,9.6
			c-4.1,10.6-5.7,21.7-5.1,33c0.1,1.5,0.6,2.6,2.1,3c1.6,0.4,2.6-0.5,3.2-1.8c0.6-1.2,1-2.5,1.5-3.7c3.1-9.1,7.6-17.5,13.2-25.3
			c0.6-0.8,1-2.4,2.4-1.8c1.1,0.4,0.6,1.8,0.5,2.7c-0.6,6.3-1.2,12.7-0.6,19c0.6,6.6,4,11.6,8.8,12.4c5.2,0.9,10.8-2.5,13.7-8.1
			c0.4-0.7,0.3-1.8,1.4-2.1c3.1,6.9,5.8,10.9,9.6,13.9c3.1,2.4,6.4,3.9,10.5,2.6c6.2-1.8,11.1-7.8,11.7-14.3
			c0.6-6.4-0.6-12.5-2.9-18.7c0.7,0,1.2-0.1,1.6-0.1c3.8,0.1,6.8-1.6,9.3-4.4C265.3,192.1,265.6,191.2,265.1,190.4z M237,172.6
			c2.4-6.3,5.7-12,10.6-16.6c1-1,2.3-2.3,3.7-1.5c1.4,0.8,1,2.5,0.7,4c-1,5.6-2.3,11-5.6,15.8c-1.4,2.1-3.2,3.7-6.5,3.6
			C236.4,177.8,235.5,176.5,237,172.6z"/>
	</g>
	<g>
		<path class="st0" d="M161.4,437.8c-4.8-11.6-13.2-20.2-23.9-26.5c-1.6-1-2.4-1.9-2.4-3.9c0-3.9-0.5-7.8-1.6-11.5
			c-6.3-21.4-18.3-37.7-40.9-43.9c-11.5-3.1-23.1-2.1-35.1,0.2c7.7-11.8-0.9-29.3-13.1-31.2c-7.8-1.2-14.6,1.1-20.3,6.3
			c-15.1,13.7-17.7,40-5.6,56.5c5.9,8,14,13.2,22.8,17.6c1.8,0.9,2.7,1.8,2.6,3.9c-0.1,2.8,0.2,5.6,0.7,8.3
			c3.3,19.6,24,40.9,47.1,41.4c14.7,0.3,26.8-4.8,35.1-17.3c4.5-6.7,7-14.3,8.4-22.2c11.9,4.6,24.3,21.2,25.2,33.9
			c0.1,0.9-0.3,2.2,1.2,2.3c1.4,0.1,1.3-1,1.6-2C164.5,445.5,162.9,441.6,161.4,437.8z M44.7,390.8c-13.9-9.5-22.1-22.2-23.2-39.8
			c1.1-8,2.5-16.3,10.2-21.7c5.7-4,11.8-4,17.1-0.2c5.6,4.1,8.7,11.6,6.9,17.6c-1.3,4.6-4.8,6.8-9.3,7.4c-3.8,0.5-6.8-0.6-8.7-4.1
			c-0.5-1-1.1-2.6-2.7-1.8c-1.3,0.7-0.8,2.3-0.5,3.3c2,7.4,9.5,12.1,17.4,10.6c7.6-1.5,15.2-3.3,23-3.9c12.3-1,22.6,2.5,30.9,11.6
			c8.7,9.6,14.6,20.6,16.4,33.6c0.2,1.5,0.1,2.2-1.5,1.8c-9.8-1.9-19.8-0.9-29.7-1.3c-11.7-0.5-23.2-2.1-34.2-6.6
			c-1.9-0.8-2.7-1.5-1.7-3.8c3.8-9.3,9.9-15.7,20.2-17.3c6.1-1,10.3,2.6,14.6,6c1.5,1.1,2.6,4.5,4.9,2.2c1.9-1.9-0.8-3.8-1.9-5.3
			c-8.9-12.1-24.5-13.5-36-3.4c-4.4,3.9-7.6,8.6-9.9,14.1C46.7,390.7,46.5,392,44.7,390.8z M123.1,415.4c0,0.5-0.1,0.9-0.1,0.9
			c0,0,0,0,0,0c0,0,0,0,0,0c-0.7,18.2-11.1,29.5-28.4,31.6c-5,0.6-9.8-0.8-14.2-2.7c-15.2-6.7-24.4-18.4-28.1-34.5
			c-0.2-0.8-0.3-1.5-0.3-2.3c-0.1-1.8,0.4-2.5,2.5-1.9c13.8,4.1,28,3.3,42.1,2.6c7.5-0.4,14.9-0.9,22.3,0.6
			C123.4,410.7,123.4,410.6,123.1,415.4z"/>
		<path class="st0" d="M489.9,349.8c-2.2-11.2-7.7-20.7-18.4-26c-10.2-5-20.8-2.2-26.3,6.9c-4.3,7.1-5.2,14.5-0.7,22.2
			c-3.2-0.5-6.2-1-9.3-1.4c-20.6-2.3-39,1.7-52.9,18.5c-9.3,11.1-14.6,23.8-15.4,38.2c-0.1,1.9-0.7,2.8-2.3,3.8
			c-10.8,6.4-19.2,15-24,26.9c-1.5,3.8-2.8,7.7-1.5,12c0.2,0.8,0.4,1.6,1.3,1.6c1,0,1-0.9,1.1-1.7c2.3-15.9,11.7-26.7,25.2-34.9
			c1.2,5.4,2.5,10.6,4.7,15.4c8.9,19.9,25.4,26.7,44.4,23.9c22.1-3.2,43.4-26.5,42.2-49.7c-0.1-1.6,0.5-2.3,1.9-3
			c3.7-1.7,7.2-3.9,10.7-6.1C487.8,385.4,493.7,369.4,489.9,349.8z M447.8,418.3c-5.9,14.8-16.1,25.1-31.7,29.4
			c-14.2,3.9-30.7-5.1-35.2-19.2c-1.5-4.7-2-9.6-2.1-14.5c0-2.2,0.7-3.1,2.9-3.5c8-1.5,16-1.4,24-0.7c16.6,1.4,31,0.4,44-3.1
			C450.5,410.9,449.2,414.7,447.8,418.3z M474.9,372.5c-4,7.7-10,13.6-17,18.5c-1.6,1.1-2.3,1.1-3.1-0.9
			c-2.4-6.1-6.1-11.3-11.4-15.3c-12.3-9.3-28.6-6-36,7.4c-0.5,0.9-1.4,1.9-0.2,2.9c1.3,1.2,2.3,0.4,3.2-0.5
			c3.3-3.2,6.6-6.4,11.2-7.6c7.5-1.8,17,2.8,22.1,10.6c5.5,8.4,5.3,9-4.2,12.2c-12.1,4-24.6,4.8-37.3,4.7c-7,0-14.1-0.2-21,1.3
			c-1.3,0.3-1.9-0.1-1.6-1.5c3.4-17.5,11-32.4,26.9-41.8c8.2-4.8,17.3-4.3,26.4-3.2c5.9,0.7,11.5,2.4,17.3,3.4
			c8.1,1.5,15.3-3.1,17.5-10.9c0.3-1.1,0.6-2.3-0.5-3c-1.2-0.7-1.8,0.4-2.4,1.2c-3.8,5.1-7.4,6.1-12.8,3.7
			c-4.3-1.9-6.9-7.2-5.8-12.3c0.4-2,1-4.1,2.1-5.9c3.2-4.9,7.3-8.7,13.5-8.5c6.5,0.2,11.4,3.6,14.5,9.2
			C482.8,348.5,481,360.7,474.9,372.5z"/>
	</g>
</g>
</svg>
